<svg width="1920" height="1080" viewBox="0 0 1920 1080" fill="none" xmlns="http://www.w3.org/2000/svg">
<g id="intro" clip-path="url(#clip0_426_686)">
<rect width="1920" height="1080" fill="white"/>
<g id="intro1" clip-path="url(#clip1_426_686)">
<g id="Group">
<g id="Group_2">
<path id="Vector" d="M528.961 436.716C513.813 429.714 497.739 421.9 489.315 407.587C480.892 393.274 485.065 370.682 501.139 366.156C477.105 350.489 459.485 322.018 464.701 293.972C469.956 265.926 504.076 244.611 529.386 258.189C514.895 234.631 500.019 209.835 498.55 182.292C497.082 154.749 514.123 124.15 541.673 120.281C561.496 117.535 580.237 128.714 597.084 139.468C591.018 121.055 609.758 99.6238 629.001 102.912C620.539 84.3824 612.077 65.8528 603.614 47.3231C595.925 30.4569 589.549 7.43992 604.271 -3.89448C618.53 -14.8807 638.893 -4.20394 653.461 6.39547C621.698 -35.4606 606.86 -94.1829 630.508 -141.029C654.156 -187.875 724.173 -209.771 763.201 -174.413C748.71 -198.127 739.939 -225.283 737.891 -252.942C746.315 -230.699 770.195 -215.225 794.152 -216.502C819.152 -217.856 840.211 -235.031 864.169 -242.381C906.287 -255.302 956.365 -232.362 973.792 -192.208C982.912 -213.175 948.792 -241.724 966.837 -255.882C975.608 -262.806 988.592 -257.004 997.363 -250.079C1022.09 -230.621 1039.87 -202.614 1046.86 -172.092C1049.57 -160.294 1051.04 -147.412 1059.07 -138.321C1071.24 -124.55 1092.65 -125.285 1110.16 -119.444C1136.74 -110.624 1155.09 -85.4016 1162.98 -58.7484C1170.86 -32.0951 1169.89 -3.73974 1168.85 24.0354C1183.07 13.552 1203.59 12.2367 1219.01 20.902C1234.42 29.5672 1243.93 47.5939 1242.23 65.0791C1241.53 72.1582 1239.25 79.7016 1242.46 86.0458C1246.98 94.9818 1259 96.0649 1268.7 98.7341C1304.09 108.56 1318.47 159.971 1293.23 186.431C1309.54 175.212 1332.92 179.506 1348.65 191.537C1364.37 203.568 1373.99 221.633 1382.42 239.466C1400.97 278.808 1416.07 320.78 1416.85 364.222C1417.62 407.664 1402.32 453.002 1368.7 480.854C1335.08 508.707 1281.8 514.355 1247.41 487.431C1270.44 499.461 1293.47 511.492 1316.5 523.523C1323.03 526.927 1330.1 530.911 1332.61 537.797C1336.47 548.242 1327.01 559.77 1316.11 562.439C1305.21 565.147 1293.85 561.665 1283.19 558.222C1243.47 545.418 1203.74 532.614 1164.02 519.809C1189.83 545.457 1173.56 593.812 1141.03 610.291C1108.46 626.77 1068.69 619.227 1035 605.146C1056.41 616.326 1081.52 637.602 1070.86 659.11C1067.88 665.106 1062.51 669.555 1057.02 673.423C1004.59 710.637 928.235 710.715 875.722 673.617C856.402 697.137 824.562 708.123 793.959 707.968C763.355 707.813 733.64 697.794 705.665 685.454C658.832 664.797 615.091 637.292 576.218 604.179C593.761 611.606 590.283 640.813 573.282 649.439C556.28 658.066 535.027 650.522 520.614 638.105C506.201 625.687 496.309 609.014 483.442 595.05C463.619 573.541 437.189 558.996 416.709 538.068C396.23 517.14 382.087 485.226 394.877 458.998C405.079 438.07 429.847 427.238 453.302 426.852C476.757 426.465 499.4 434.588 521.426 442.557L528.961 436.716Z" fill="url(#paint0_linear_426_686)"/>
</g>
<g id="Group_3">
<path id="Vector_2" d="M597.122 476.638C581.975 469.559 565.901 461.706 557.477 447.238C549.053 432.77 553.226 409.947 569.301 405.382C545.266 389.56 527.646 360.818 532.863 332.502C538.118 304.185 572.238 282.677 597.547 296.371C583.057 272.58 568.18 247.513 566.712 219.699C565.244 191.885 582.284 160.977 609.835 157.108C629.658 154.323 648.398 165.619 665.246 176.45C659.179 157.882 677.92 136.18 697.163 139.546C688.701 120.823 680.238 102.138 671.776 83.4153C664.087 66.3944 657.711 43.1453 672.433 31.6949C686.691 20.5926 707.055 31.3854 721.623 42.1008C689.86 -0.180768 675.022 -59.4833 698.67 -106.794C722.318 -154.104 792.335 -176.193 831.362 -140.526C816.833 -164.472 808.062 -191.86 806.014 -219.828C814.438 -197.353 838.318 -181.725 862.275 -183.04C887.275 -184.394 908.334 -201.763 932.292 -209.152C974.41 -222.188 1024.49 -199.055 1041.92 -158.514C1051.03 -179.674 1016.91 -208.494 1034.96 -222.846C1043.73 -229.809 1056.71 -223.968 1065.49 -216.966C1090.22 -197.314 1107.99 -169.036 1114.98 -138.205C1117.69 -126.291 1119.16 -113.293 1127.2 -104.125C1139.37 -90.2371 1160.77 -90.9334 1178.28 -85.0921C1204.86 -76.1948 1223.22 -50.7407 1231.1 -23.778C1238.98 3.18476 1238.02 31.7722 1236.97 59.8181C1251.19 49.2187 1271.71 47.9034 1287.13 56.646C1302.55 65.3886 1312.05 83.6088 1310.35 101.287C1309.66 108.444 1307.38 116.065 1310.58 122.447C1315.11 131.461 1327.12 132.544 1336.82 135.252C1372.22 145.155 1386.59 197.108 1361.36 223.838C1377.66 212.504 1401.04 216.836 1416.77 228.983C1432.5 241.13 1442.12 259.389 1450.54 277.377C1469.09 317.105 1484.2 359.503 1484.97 403.371C1485.74 447.238 1470.44 493.001 1436.82 521.163C1403.21 549.287 1349.92 554.973 1315.53 527.817C1338.56 539.964 1361.59 552.111 1384.62 564.257C1391.15 567.7 1398.22 571.723 1400.73 578.686C1404.6 589.247 1395.13 600.852 1384.23 603.599C1373.34 606.307 1361.98 602.825 1351.31 599.344C1311.59 586.423 1271.87 573.464 1232.14 560.544C1257.96 586.462 1241.69 635.281 1209.15 651.915C1176.58 668.549 1136.82 660.929 1103.12 646.693C1124.53 657.989 1149.65 679.458 1138.98 701.199C1136.01 707.272 1130.63 711.721 1125.15 715.666C1072.71 753.229 996.358 753.306 943.845 715.86C924.525 739.612 892.685 750.714 862.082 750.559C831.478 750.405 801.763 740.269 773.788 727.813C726.955 706.963 683.214 679.187 644.341 645.726C661.884 653.23 658.406 682.708 641.405 691.412C624.403 700.115 603.15 692.533 588.737 679.961C574.363 667.427 564.432 650.6 551.565 636.48C531.742 614.779 505.312 600.079 484.832 578.957C464.353 557.836 450.21 525.612 463 499.113C473.202 477.953 497.97 467.044 521.425 466.658C544.88 466.271 567.524 474.472 589.549 482.518L597.122 476.638Z" fill="url(#paint1_linear_426_686)"/>
</g>
<g id="Group_4">
<path id="Vector_3" d="M867.762 666.692C846.858 674.429 819.5 680.619 805.396 663.327C801.687 658.801 799.562 653.153 796.161 648.356C787.39 635.939 771.663 630.794 756.748 628.047C741.832 625.339 726.183 624.14 712.929 616.713C699.675 609.324 689.629 593.154 695.116 578.996C700.835 564.18 720.773 557.371 723.594 541.743C725.835 529.326 716.175 518.417 710.147 507.353C702.226 492.808 700.216 474.781 706.399 459.424C712.543 444.066 727.265 432.035 743.764 430.643C748.865 430.217 754.507 430.604 758.564 427.432C762.119 424.647 763.355 419.927 764.399 415.556C769.499 394.435 775.45 372.578 789.786 356.292C810.497 332.695 847.978 325.886 875.684 340.741C885.151 345.809 894.154 353.275 904.896 353.546C911.233 353.7 917.338 351.225 923.096 348.555C953.931 334.01 984.071 310.297 1017.84 315.094C1040.76 318.343 1059.54 334.397 1076.34 350.296C1080.4 354.126 1084.54 358.072 1089.64 360.315C1106.21 367.588 1123.91 354.706 1140.8 348.091C1173.22 335.403 1213.79 348.826 1232.22 378.419C1250.65 407.974 1244.93 450.372 1219.28 473.969C1237.01 463.485 1263.52 475.091 1267.85 495.245C1272.25 515.709 1256.1 535.592 1237.4 544.954C1218.7 554.315 1197.29 556.636 1177.58 563.677C1173.95 564.992 1170.16 566.578 1167.85 569.673C1165.03 573.425 1164.95 578.493 1163.71 583.019C1159.5 598.57 1142.54 606.345 1127.51 612.071C1079.78 630.291 1032.06 648.55 984.341 666.77C973.367 670.948 962.316 675.164 950.801 677.563C919.155 684.061 886.503 676.247 855.166 668.433" fill="#244B52"/>
</g>
<g id="Group_5">
<path id="Vector_4" d="M997.016 1074.73C994.62 1089.28 992.225 1103.82 989.829 1118.37C987.974 1129.7 986.776 1143.16 995.277 1150.9C1001.11 1156.24 1009.73 1156.93 1017.61 1157.32C1056.14 1159.33 1095.36 1161.31 1132.68 1151.48C1105.79 1079.84 1078.66 1007.03 1072.17 930.788C1070.39 909.898 1070.16 888.893 1066.96 868.197C1065.14 856.592 1062.4 845.064 1061.82 833.343C1060.85 813.885 1065.84 794.698 1070.51 775.781C1077.39 748.006 1083.69 719.651 1082.3 691.063C1080.21 649.091 1061.7 609.672 1055.79 568.087C1049.88 526.424 1056.72 484.143 1063.59 442.673C1057.84 448.631 1052.12 454.588 1046.36 460.584L1037.7 454.24C1034.23 520.97 1037.55 588.009 1047.6 654.043C1051.07 676.982 1055.25 701.16 1046.94 722.784C1045.86 725.608 1044.51 728.432 1042.19 730.327C1033.8 737.368 1021.78 728.316 1014.79 719.921L1022.79 726.459C1001.46 707.272 988.901 680.154 980.285 652.805C971.668 625.455 966.335 597.061 956.443 570.098C934.534 510.525 890.638 459.346 878.35 397.065C871.897 402.481 865.444 407.896 858.991 413.312C857.987 414.163 856.944 415.053 856.48 416.291C855.746 418.341 856.905 420.585 858.025 422.442C902.926 498.146 937.819 579.769 961.467 664.565C929.008 658.104 903.621 632.38 885.847 604.411C868.072 576.443 855.707 545.225 836.85 517.991L829.586 501.666C832.832 533.116 849.293 561.704 868.033 587.158C886.774 612.612 908.258 636.209 923.985 663.636C944.078 698.761 953.932 738.645 963.515 777.986C980.671 848.198 997.905 919.183 997.905 991.444C997.905 1033.8 991.993 1076.7 1000.38 1118.25" fill="url(#paint2_linear_426_686)"/>
</g>
</g>
<g id="Frame" clip-path="url(#clip2_426_686)">
<g id="Group_6">
<g id="Group_7">
<path id="Vector_5" d="M1063.03 1005.49C1057.7 1021.47 1048.02 1035.68 1038.44 1049.7C1043.2 1043.87 1054.72 1046.04 1059.36 1052.55C1063.99 1059.05 1062.72 1067.7 1058.41 1073.84C1054.11 1079.97 1047.36 1084.17 1040.76 1088.27C1016.02 1103.52 990.186 1119.1 960.25 1123.24C964.225 1124.39 967.46 1130.37 965.015 1134.09C961.779 1138.93 954.594 1139.74 948.251 1140.02C927.308 1140.91 906.289 1140.99 885.245 1140.25C887.665 1140.05 890.111 1139.87 892.506 1139.64C897.754 1139.15 903.742 1138.11 906.519 1133.2C908.684 1129.43 906.162 1123.63 902.901 1122.61C927.741 1117.47 949.55 1101.12 970.467 1085.21C976.046 1080.96 981.753 1076.56 985.473 1070.32C989.193 1064.09 990.517 1055.48 986.849 1049.19C983.205 1042.91 973.728 1041.15 969.601 1047.08C977.932 1032.88 986.314 1018.44 991.18 1002.43C996.046 986.395 997.065 968.246 990.696 952.87C980.709 928.739 953.779 912.778 953.728 886.253C953.703 868.638 965.601 848.35 954.773 835.418C950.314 839.67 945.881 843.921 941.423 848.172C958.569 793.824 975.664 733.673 956.454 680.191C951.639 686.911 945.346 692.333 938.289 695.871C941.168 674.285 943.996 651.884 938.391 630.959C932.786 610.035 916.276 590.943 896.481 591.223C897.882 582.67 899.283 573.837 897.5 565.335C895.716 556.858 889.907 548.764 882.086 547.694C875.793 546.803 867.436 549.476 864.583 543.24C863.615 541.152 863.742 538.683 863.895 536.341C864.99 519.871 866.086 503.402 867.182 486.957C867.487 481.943 867.793 476.699 865.882 472.168C864.685 469.317 862.29 466.898 859.615 465.982C864.328 449.741 868.022 433.17 870.723 416.395C865.627 425.202 860.506 433.984 855.385 442.792C853.882 445.388 850.927 448.341 848.736 446.432C847.921 445.719 847.589 444.548 847.386 443.428C845.602 433.704 850.774 424.235 852.481 414.485C854.214 404.736 849.016 391.448 840.125 393.23C835.921 394.07 830.188 397.481 828.481 393.128C833.679 380.782 838.851 368.462 844.023 356.116C844.634 354.639 845.271 353.087 845.118 351.508C844.532 345.094 835.59 347.232 829.959 345.45C823.921 343.515 821.373 335.751 820.074 328.98C811.412 284.153 817.654 234.184 795.616 195.313C790.469 205.546 786.775 216.594 784.609 228.049C785.756 211.859 790.469 196.102 798.571 182.127C826.596 222.296 820.762 272.52 832.787 318.136C834.596 325.035 837.959 332.977 845.322 335.191C852.175 337.228 862.952 335.446 863.869 341.937C864.099 343.566 863.411 345.119 862.723 346.545C856.863 358.814 851.003 371.033 845.144 383.277C847.36 387.732 854.188 384.524 859.258 383.862C869.933 382.462 876.685 396.081 874.927 405.856C873.194 415.606 867.258 424.973 869.729 434.875C870.01 435.995 870.468 437.217 871.487 437.955C874.213 439.992 877.678 437.141 879.411 434.57C885.296 425.915 891.181 417.235 897.066 408.58C894.366 425.38 890.442 442.003 885.321 458.193C888.557 459.236 891.538 461.782 893.092 464.709C895.563 469.368 895.385 474.662 895.156 479.703C894.391 496.3 893.653 512.871 892.914 529.494C892.812 531.836 892.71 534.33 893.958 536.468C897.652 542.858 907.716 540.541 915.334 541.687C924.837 543.112 932.149 551.513 934.62 560.168C937.04 568.797 935.665 577.681 934.263 586.26C958.187 586.82 978.849 606.777 986.339 628.134C993.83 649.517 991.18 672.019 988.428 693.733C996.861 690.449 1004.3 685.205 1009.88 678.612C1034.98 733.494 1016.3 793.468 997.422 847.688C1002.67 843.59 1007.89 839.466 1013.14 835.342C1026.72 848.884 1012.99 868.893 1013.63 886.686C1014.59 913.465 1047.74 930.724 1060.66 955.518C1068.99 971.198 1068.35 989.45 1063.03 1005.49Z" fill="url(#paint3_linear_426_686)"/>
</g>
<g id="Group_8">
<path id="Vector_6" d="M760.609 386.128C757.221 398.856 753.807 411.584 750.418 424.311C735.565 479.957 720.712 535.73 711.234 592.522C707.718 613.701 701.68 639.08 681.247 645.673C672.33 648.549 661.4 647.404 654.904 654.15C647.158 662.168 651.158 675.583 657.222 684.951C663.286 694.318 671.286 703.813 670.394 714.912C661.706 707.301 652.279 700.53 642.267 694.726C636.254 691.238 627.923 688.387 623.031 693.3C620.688 695.668 620 699.155 619.516 702.439C614.598 735.735 620.891 770.583 637.095 800.086C642.267 809.505 648.381 821.545 641.783 830.073C639.948 832.415 637.35 834.095 635.592 836.488C628.687 845.83 637.783 858.456 638.496 870.038C639.974 894.043 605.07 911.556 612.051 934.593C614.114 941.416 619.617 946.583 623.184 952.769C626.751 958.954 627.745 968.017 622.012 972.268C613.63 978.453 599.694 968.577 592 975.577C595.745 1004.01 621.07 1023.64 639.668 1045.48C643.77 1050.29 647.643 1057.57 643.592 1062.43C636.076 1071.42 618.547 1054.64 610.751 1063.4C612.458 1068.03 614.191 1072.66 615.898 1077.27C613.172 1072.92 605.503 1075.21 603.949 1080.1C602.395 1084.98 605.197 1090.25 608.891 1093.84C612.586 1097.43 617.172 1100 620.637 1103.77C629.452 1113.39 632.585 1131.26 645.63 1131.8C640.917 1136.48 637.554 1142.54 636.101 1149.03C665.706 1151.45 695.515 1151.58 725.119 1149.41C728.202 1161.38 743.285 1165.7 755.59 1164.51C767.896 1163.31 780.303 1158.78 792.329 1161.61L792.507 1161.86C798.265 1162.37 804.074 1162.12 809.755 1161.07C811.64 1160.74 813.526 1160.31 815.436 1160.21C818.01 1160.08 820.583 1160.54 823.131 1161C826.035 1161.53 828.939 1162.06 831.869 1162.57L822.57 1162.14C851.997 1163.29 881.499 1162.65 910.849 1160.21C916.836 1159.7 923.69 1158.63 926.874 1153.56C930.059 1148.47 924.174 1139.77 919.231 1143.18C949.116 1138.67 975.129 1121 999.969 1103.85C1006.34 1099.44 1012.86 1094.89 1017.12 1088.42C1021.37 1081.96 1022.87 1073.05 1018.69 1066.53C1014.52 1060.01 1003.69 1058.21 999.001 1064.34C1008.5 1049.63 1018.11 1034.68 1023.66 1018.06C1029.22 1001.44 1030.39 982.679 1023.1 966.718C1011.69 941.721 980.886 925.175 980.836 897.708C980.81 879.457 994.415 858.43 982.033 845.041C976.937 849.445 971.868 853.848 966.772 858.252C986.364 801.945 1005.93 739.68 983.995 684.238C978.492 691.187 971.307 696.813 963.231 700.504C966.517 678.154 969.753 654.939 963.358 633.251C956.963 611.562 938.059 591.834 915.461 592.089C917.066 583.23 918.671 574.041 916.633 565.259C914.594 556.477 907.945 548.102 899.002 546.982C891.843 546.091 882.264 548.815 878.977 542.4C877.856 540.236 878.009 537.665 878.187 535.247C879.436 518.192 880.684 501.136 881.932 484.056C882.315 478.888 882.646 473.441 880.455 468.731C878.264 464.022 872.633 460.484 867.818 462.444L869.958 472.422C876.913 452.389 882.289 431.821 886.009 410.947C880.174 420.06 874.315 429.173 868.48 438.287C866.748 440.985 863.385 444.039 860.863 442.054C859.945 441.316 859.538 440.119 859.308 438.948C857.27 428.868 863.181 419.068 865.143 408.962C867.13 398.856 861.168 385.135 851.028 386.943C846.213 387.808 839.64 391.346 837.678 386.866C843.614 374.088 849.551 361.309 855.461 348.505C856.175 347.003 856.888 345.374 856.71 343.719C856.047 337.075 845.805 339.29 839.385 337.432C832.481 335.421 829.576 327.402 828.073 320.376C818.112 273.996 825.245 222.245 800.048 182C786.774 205.928 781.883 234.388 786.418 261.37C787.641 268.676 789.551 276.007 788.915 283.415C788.201 291.612 784.405 299.172 780.94 306.63C770.214 329.769 762.163 354.156 757.017 379.128L758.112 375.208C757.909 378.237 759.03 381.215 759.31 384.244C759.87 390.405 756.94 396.387 756.991 402.572" fill="url(#paint4_linear_426_686)"/>
</g>
<g id="Group_9">
<path id="Vector_7" d="M823.384 1085.98C799.359 1090.46 774.239 1092.72 750.774 1085.88C727.335 1079.03 705.781 1061.46 700.049 1037.74C698.087 1029.67 698.342 1020.28 703.947 1014.14C707.233 1010.55 711.896 1008.62 715.743 1005.67C725.653 998.105 729.373 984.843 729.984 972.395C730.621 959.947 728.813 947.398 730.469 935.052C732.379 920.797 739.054 907.229 749.143 896.996C755.538 890.505 763.767 885.184 772.863 884.675C786.926 883.886 799.181 894.399 813.117 896.461C843.155 900.865 873.167 865.864 899.944 880.17C911.205 886.203 916.835 899.414 918.364 912.091C919.893 924.768 918.211 937.623 919.077 950.376C919.867 961.958 922.772 973.362 922.925 984.945C923.077 996.527 919.969 1009.03 911.027 1016.43C898.186 1027.07 876.097 1025.39 867.995 1039.95C862.416 1049.98 866.747 1062.43 865.881 1073.89C864.811 1087.71 855.155 1100.49 842.136 1105.3C829.117 1110.11 813.448 1106.67 803.64 1096.87" fill="#244B52"/>
</g>
<g id="Group_10">
<g id="Group_11">
<path id="Vector_8" d="M874.976 1368.43C873.983 1362.7 871.282 1357.28 869.244 1351.91C866.696 1345.17 864.199 1338.39 861.703 1331.65L862.645 1335.47C861.83 1332.16 860.836 1328.87 859.715 1325.67C859.919 1326.1 860.174 1326.51 860.378 1326.94C851.97 1299.68 845.907 1271.65 832.429 1246.25C828.837 1239.45 827.741 1232.3 828.455 1224.66C828.48 1224.76 828.48 1224.84 828.48 1224.94C828.48 1224.61 828.48 1224.25 828.506 1223.9C828.531 1223.36 828.506 1222.85 828.455 1222.32C828.353 1221.76 828.225 1221.2 828.149 1220.64C828.098 1220.46 828.072 1220.26 828.072 1220.08C828.072 1219.92 828.072 1219.8 828.072 1219.64C828.047 1219.57 828.047 1219.47 828.047 1219.39C822.697 1195.89 820.964 1171.48 823.792 1147.1C825.754 1132.49 832.582 1118.84 834.518 1104.23C839.359 1057.67 828.786 1009.2 856.556 966.464C855.715 964.758 854.722 962.595 855.588 961.347C851.435 963.027 849.728 967.533 847.97 971.3C845.652 976.239 842.9 980.948 839.614 985.301C839.181 986.523 839.767 988.152 837.499 988.203C834.34 988.279 832.327 980.49 831.741 977.893C830.798 973.846 830.62 969.671 830.595 965.522C830.569 962.518 832.225 956.663 828.353 955.976C827.971 955.467 827.563 954.933 827.206 954.398C826.722 964.886 826.722 975.602 827.716 986.319C832.582 1025.29 832.582 1062.33 821.856 1100.33C820.888 1104.23 821.856 1109.12 821.958 1112.63C820.913 1110.24 819.308 1108.1 817.295 1106.42C810.697 1090.84 807.792 1073.73 802.34 1057.47C794.544 1035.07 783.818 1015.57 773.092 995.101C770.162 989.247 771.131 982.425 771.258 975.933C771.181 976.188 771.105 976.417 771.029 976.646C769.755 975.068 768.328 973.591 766.697 972.395C763.334 980.464 765.271 989.247 768.201 997.036C776.736 1021.68 791.716 1043.54 793.703 1069.84C790.595 1065.66 775.615 1059.15 773.296 1058.43C764.226 1055.66 754.749 1054.26 745.959 1050.57C745.781 1051.77 745.679 1054.41 744.838 1054.79C759.436 1061.36 776.99 1062.35 787.716 1076.97C791.614 1082.82 793.576 1089.64 794.544 1096.47C796.353 1115.53 796.48 1134.6 792.557 1153.66C792.557 1153.77 792.582 1153.87 792.582 1153.97C792.455 1155.5 792.302 1157.02 792.124 1158.55C792.098 1158.78 792.098 1159.01 792.073 1159.21V1158.93C791.64 1162.65 791.079 1166.37 790.417 1170.08C789.525 1175.15 789.423 1180.37 788.251 1185.38C788.226 1185.53 788.149 1185.69 788.098 1185.81C785.831 1208.04 785.347 1230.74 789.678 1252.38C796.506 1266.02 806.264 1277.71 812.098 1292.32C821.805 1319.51 817.015 1347.64 815.053 1374.82C815.13 1374.87 815.206 1374.92 815.257 1374.97C815.283 1374.97 815.308 1374.97 815.334 1374.97C815.538 1374.97 815.716 1374.97 815.92 1374.97C816.71 1374.97 817.499 1375.03 818.289 1375C818.442 1375 818.595 1375 818.722 1374.97C818.748 1374.97 818.85 1374.95 818.926 1374.95C818.952 1374.95 818.952 1374.95 818.952 1374.95C819.053 1374.92 819.155 1374.9 819.283 1374.87C819.894 1374.69 820.48 1374.52 821.117 1374.49C821.525 1374.47 821.932 1374.52 822.315 1374.62C830.9 1374.19 838.595 1375.1 847.206 1374.16C856.964 1373.19 865.728 1371.23 875.307 1371.28C875.231 1369.73 875.104 1368.87 874.976 1368.43ZM830.824 959.133C830.111 958.216 829.372 957.325 828.658 956.409C829.499 957.198 830.238 958.115 830.824 959.133Z" fill="url(#paint5_linear_426_686)"/>
</g>
</g>
</g>
</g>
</g>
<g id="introleft">
<g id="Frame_2" clip-path="url(#clip3_426_686)">
<g id="Group_12">
<g id="Group_13">
<path id="Vector_9" d="M704.242 387.928C715.889 382.876 728.25 377.239 734.727 366.913C741.205 356.587 737.996 340.288 725.635 337.023C744.116 325.72 757.666 305.18 753.654 284.947C749.613 264.713 723.377 249.336 703.915 259.132C715.057 242.135 726.497 224.246 727.626 204.376C728.755 184.505 715.652 162.43 694.466 159.639C679.224 157.658 664.813 165.723 651.858 173.482C656.523 160.197 642.113 144.736 627.316 147.108C633.823 133.74 640.33 120.372 646.837 107.004C652.75 94.8364 657.652 78.2311 646.332 70.054C635.368 62.1281 619.709 69.8307 608.507 77.4776C632.931 47.281 644.341 4.91644 626.157 -28.8803C607.973 -62.677 554.133 -78.473 524.123 -52.965C535.266 -70.0727 542.01 -89.6642 543.585 -109.618C537.108 -93.5713 518.745 -82.4081 500.323 -83.329C481.099 -84.3058 464.906 -96.697 446.484 -102C414.097 -111.321 375.589 -94.7714 362.189 -65.8027C355.177 -80.9289 381.413 -101.525 367.537 -111.74C360.792 -116.735 350.809 -112.549 344.064 -107.553C325.048 -93.5155 311.38 -73.31 306.002 -51.2905C303.922 -42.7785 302.793 -33.4851 296.613 -26.9267C287.253 -16.9914 270.792 -17.5217 257.333 -13.3076C236.89 -6.9445 222.777 11.2516 216.715 30.4803C210.654 49.709 211.397 70.1656 212.199 90.2037C201.265 82.6406 185.487 81.6917 173.632 87.9431C161.776 94.1945 154.467 107.2 155.774 119.814C156.309 124.921 158.062 130.363 155.596 134.94C152.12 141.387 142.879 142.169 135.421 144.094C108.204 151.183 97.1511 188.273 116.554 207.362C104.015 199.269 86.0386 202.366 73.9455 211.046C61.8524 219.725 54.4539 232.758 47.9765 245.624C33.7144 274.007 22.0967 304.287 21.5024 335.628C20.9082 366.968 32.6745 399.677 58.5245 419.771C84.3746 439.864 125.349 443.939 151.793 424.515C134.084 433.194 116.375 441.874 98.6665 450.553C93.645 453.009 88.2076 455.884 86.2762 460.851C83.305 468.387 90.5846 476.703 98.9636 478.629C107.343 480.582 116.078 478.071 124.279 475.587C154.824 466.349 185.368 457.112 215.913 447.874C196.065 466.377 208.574 501.262 233.592 513.151C258.64 525.04 289.214 519.598 315.124 509.439C298.663 517.505 279.35 532.854 287.55 548.371C289.838 552.697 293.968 555.906 298.188 558.697C338.508 585.545 397.22 585.601 437.6 558.837C452.456 575.805 476.939 583.731 500.472 583.619C524.004 583.508 546.854 576.279 568.366 567.377C604.377 552.474 638.012 532.631 667.903 508.742C654.414 514.1 657.088 535.171 670.161 541.394C683.235 547.618 699.577 542.176 710.66 533.217C721.743 524.259 729.349 512.23 739.244 502.155C754.486 486.639 774.81 476.145 790.558 461.047C806.305 445.948 817.18 422.924 807.345 404.003C799.501 388.904 780.455 381.09 762.42 380.811C744.384 380.532 726.972 386.393 710.036 392.142L704.242 387.928Z" fill="url(#paint6_linear_426_686)"/>
</g>
<g id="Group_14">
<path id="Vector_10" d="M651.829 416.729C663.477 411.622 675.837 405.956 682.315 395.519C688.792 385.081 685.583 368.615 673.223 365.322C691.704 353.908 705.253 333.172 701.242 312.743C697.201 292.314 670.964 276.797 651.503 286.677C662.645 269.513 674.084 251.429 675.213 231.363C676.342 211.297 663.239 188.998 642.054 186.208C626.811 184.198 612.401 192.347 599.446 200.162C604.111 186.766 589.7 171.109 574.903 173.537C581.41 160.03 587.917 146.55 594.424 133.043C600.337 120.763 605.24 103.99 593.919 95.7295C582.955 87.7199 567.297 95.5062 556.095 103.237C580.519 72.7332 591.929 29.9501 573.744 -4.18157C555.56 -38.3132 501.721 -54.2487 471.711 -28.5174C482.883 -45.7926 489.628 -65.5515 491.202 -85.7291C484.725 -69.5145 466.362 -58.2396 447.941 -59.1885C428.716 -60.1653 412.523 -72.696 394.101 -78.0264C361.714 -87.4315 323.206 -70.7424 309.806 -41.4947C302.794 -56.7605 329.03 -77.552 315.154 -87.9059C308.409 -92.9294 298.426 -88.7153 291.681 -83.6639C272.665 -69.4866 258.997 -49.0857 253.619 -26.843C251.539 -18.2473 250.41 -8.87012 244.23 -2.2559C234.87 7.76311 218.409 7.26076 204.95 11.4749C184.507 17.8938 170.394 36.2573 164.332 55.7093C158.271 75.1612 159.014 95.7853 159.816 116.019C148.882 108.372 133.104 107.423 121.249 113.73C109.393 120.037 102.084 133.182 103.391 145.936C103.926 151.099 105.679 156.597 103.213 161.202C99.7367 167.705 90.4961 168.486 83.0382 170.44C55.8213 177.584 44.7681 215.065 64.1706 234.349C51.6318 226.172 33.6556 229.298 21.5625 238.061C9.4694 246.824 2.07096 259.997 -4.40642 272.974C-18.6685 301.636 -30.2862 332.223 -30.8805 363.871C-31.4748 395.519 -19.7085 428.534 6.14157 448.851C31.9917 469.14 72.9656 473.243 99.4099 453.651C81.7011 462.414 63.9923 471.177 46.2835 479.941C41.2621 482.424 35.8246 485.327 33.8933 490.35C30.922 497.969 38.2017 506.342 46.5807 508.323C54.9597 510.277 63.6952 507.765 71.8959 505.253C102.441 495.932 132.985 486.583 163.53 477.261C143.682 495.96 156.191 531.18 181.209 543.18C206.257 555.181 236.831 549.683 262.741 539.413C246.28 547.562 226.967 563.051 235.167 578.735C237.455 583.117 241.585 586.326 245.805 589.173C286.125 616.272 344.837 616.328 385.217 589.313C400.073 606.448 424.557 614.458 448.089 614.346C471.622 614.235 494.471 606.923 515.983 597.936C551.995 582.894 585.629 562.856 615.52 538.715C602.031 544.129 604.705 565.395 617.779 571.675C630.852 577.954 647.194 572.484 658.277 563.414C669.33 554.372 676.966 542.232 686.861 532.045C702.103 516.389 722.427 505.784 738.175 490.546C753.922 475.308 764.797 452.06 754.962 432.943C747.118 417.678 728.072 409.807 710.037 409.528C692.001 409.249 674.589 415.166 657.653 420.971L651.829 416.729Z" fill="url(#paint7_linear_426_686)"/>
</g>
<g id="Group_15">
<path id="Vector_11" d="M443.721 553.841C459.796 559.423 480.833 563.888 491.678 551.413C494.53 548.148 496.164 544.073 498.779 540.613C505.524 531.654 517.617 527.942 529.086 525.961C540.555 524.007 552.589 523.142 562.78 517.784C572.972 512.454 580.697 500.788 576.478 490.574C572.08 479.885 556.749 474.973 554.58 463.698C552.856 454.739 560.284 446.869 564.92 438.888C571.011 428.394 572.556 415.389 567.802 404.31C563.077 393.23 551.757 384.551 539.07 383.546C535.147 383.239 530.809 383.518 527.69 381.23C524.956 379.22 524.005 375.815 523.203 372.662C519.281 357.424 514.705 341.656 503.682 329.906C487.756 312.883 458.934 307.971 437.63 318.687C430.351 322.343 423.427 327.73 415.167 327.925C410.294 328.037 405.6 326.251 401.173 324.325C377.462 313.831 354.286 296.724 328.317 300.184C310.697 302.529 296.257 314.11 283.332 325.581C280.212 328.344 277.033 331.19 273.111 332.809C260.364 338.056 246.755 328.762 233.771 323.99C208.842 314.836 177.644 324.52 163.471 345.87C149.298 367.192 153.695 397.779 173.424 414.803C159.786 407.24 139.403 415.612 136.075 430.152C132.688 444.916 145.108 459.261 159.489 466.014C173.87 472.768 190.331 474.443 205.484 479.522C208.277 480.471 211.189 481.615 212.972 483.848C215.141 486.555 215.201 490.211 216.151 493.476C219.39 504.695 232.434 510.305 243.992 514.435C280.687 527.58 317.383 540.752 354.078 553.897C362.516 556.911 371.014 559.953 379.869 561.683C404.203 566.372 429.311 560.735 453.408 555.097" fill="#244B52"/>
</g>
<g id="Group_16">
<path id="Vector_12" d="M344.331 848.216C346.173 858.709 348.015 869.203 349.857 879.696C351.284 887.873 352.205 897.585 345.668 903.167C341.181 907.018 334.555 907.521 328.494 907.8C298.87 909.251 268.712 910.674 240.009 903.586C260.689 851.9 281.548 799.377 286.539 744.37C287.906 729.299 288.085 714.145 290.551 699.214C291.947 690.842 294.057 682.525 294.502 674.069C295.245 660.031 291.412 646.189 287.817 632.542C282.528 612.504 277.685 592.047 278.755 571.423C280.359 541.143 294.592 512.705 299.138 482.703C303.684 452.646 298.425 422.143 293.136 392.225C297.563 396.523 301.96 400.821 306.388 405.147L313.043 400.57C315.717 448.711 313.162 497.076 305.437 544.715C302.763 561.265 299.554 578.707 305.942 594.308C306.774 596.345 307.814 598.382 309.597 599.75C316.044 604.829 325.285 598.299 330.663 592.243L324.512 596.959C340.914 583.117 350.57 563.553 357.196 543.822C363.822 524.091 367.923 503.606 375.529 484.155C392.376 441.176 426.13 404.254 435.579 359.322C440.541 363.229 445.503 367.136 450.465 371.043C451.237 371.657 452.04 372.299 452.396 373.192C452.961 374.671 452.069 376.29 451.208 377.629C416.681 432.245 389.851 491.132 371.667 552.306C396.625 547.645 416.147 529.087 429.814 508.909C443.482 488.731 452.99 466.21 467.49 446.562L473.076 434.785C470.58 457.474 457.923 478.098 443.512 496.462C429.101 514.826 412.581 531.849 400.488 551.636C385.037 576.977 377.461 605.75 370.092 634.133C356.899 684.786 343.647 735.997 343.647 788.13C343.647 818.689 348.193 849.639 341.746 879.613" fill="url(#paint8_linear_426_686)"/>
</g>
</g>
</g>
<path id="Vector_13" d="M188.171 759.579C139.803 775.158 86.7904 776.738 37.5414 764.051C30.8414 762.325 23.7143 759.992 19.7637 754.474C15.8131 748.933 17.4948 739.38 24.2482 737.898C-4.34027 737.242 -32.8219 733.134 -60.3693 725.696C-72.9418 722.293 -85.7546 717.967 -95.1506 709.168C-104.547 700.37 -109.618 686.005 -103.933 674.581C-110.179 667.047 -114.984 658.369 -118 649.133C-111.407 645.803 -103.479 645.123 -96.3785 647.262C-105.748 629.616 -88.2904 604.945 -68.0303 607.23C-79.9088 580.227 -91.7873 553.223 -103.666 526.195C-107.696 517.007 -110.473 503.858 -101.45 499.143C-97.0725 496.858 -91.7606 497.879 -86.9291 498.972C-72.2745 502.254 -57.5932 505.535 -42.9387 508.792C-51.7741 488.448 -59.8088 462.587 -44.4869 446.302C-39.8156 441.344 -33.169 437.649 -30.9534 431.281C-26.816 419.42 -40.6164 407.097 -37.2797 394.993C-35.7048 389.354 -30.6064 385.003 -29.512 379.242C-27.4299 368.232 -39.9757 360.649 -49.9323 355.058C-88.4773 333.402 -114.183 291.499 -115.464 248.162C-115.624 242.353 -115.331 236.276 -112.421 231.221C-105.534 219.165 -87.89 218.314 -74.2231 221.984C-60.5562 225.655 -46.8359 232.29 -32.9287 229.665C-36.3187 211.825 -39.7088 193.96 -43.0988 176.119C-43.7128 172.96 -44.1666 169.289 -41.9777 166.883C-38.2407 162.776 -30.9534 166.154 -25.8283 163.869C-18.9681 160.783 -20.6765 151.036 -22.7052 143.963C-33.0355 108.112 -22.8387 70.0978 -13.8164 33.9066C30.094 -141.97 46.0031 -324.433 33.1637 -505C65.7027 -497.83 78.4888 -459.378 80.5709 -426.93C82.6529 -394.482 81.345 -357.975 104.515 -334.593C108.972 -330.096 114.258 -326.231 117.728 -320.957C123.867 -311.599 122.853 -298.328 115.325 -289.967C129.179 -285.544 132.649 -268.505 135.265 -254.529C137.881 -240.554 146.129 -223.685 160.677 -224.755C151.415 -215.106 155.445 -199.307 162.225 -187.859C169.006 -176.411 178.295 -165.23 178.188 -152.008C178.055 -136.549 164.948 -120.702 172.369 -107.018C180.564 -91.8998 205.308 -95.4485 217.694 -83.3442C233.363 -68.0316 219.269 -40.4689 228.878 -20.9757C233.283 -12.0555 242.011 -6.12492 249.486 0.559157C297.293 43.3859 293.049 116.741 285.094 179.522C292.648 170.918 307.997 173.737 315.765 182.172C323.533 190.606 325.721 202.443 327.59 213.623C330.98 233.675 334.343 253.703 337.733 273.756C345.288 271.665 352.842 269.551 360.423 267.46C385.354 308.731 334.877 362.593 352.895 407.121C362.478 402.722 370.806 395.746 376.705 387.166C389.758 397.277 384.473 417.864 375.157 431.33C365.815 444.795 353.002 458.187 354.096 474.375C355.164 490.247 369.151 501.792 379.348 514.212C414.023 556.553 402.865 626.966 356.712 657.154C371.18 665.661 392.214 648.404 405.801 658.224C413.489 663.79 413.569 675.602 408.55 683.55C403.559 691.498 394.937 696.505 386.662 701.172C365.041 713.398 343.419 725.648 321.797 737.873C326.843 743.95 331.888 750.026 336.933 756.103C269.052 772.995 197.888 777.297 128.405 768.669" fill="url(#paint9_linear_426_686)"/>
<path id="Vector_14" d="M17.9153 1178.71C0.219184 1182.69 -17.4513 1186.67 -35.1474 1190.65C-43.3698 1192.51 -52.818 1194.12 -59.5849 1189.09C-66.3518 1184.07 -64.2579 1169.96 -55.8567 1170.67C-63.7982 1177.33 -76.0808 1172.33 -83.9202 1165.57C-91.7596 1158.81 -99.1393 1149.98 -109.43 1148.76C-112.648 1148.37 -116.376 1148.6 -118.546 1146.23C-121.508 1142.99 -119.236 1137.86 -116.912 1134.16C-113.082 1128.06 -109.226 1121.99 -105.396 1115.89C-112.597 1114.72 -120.027 1116.53 -127.254 1115.59C-134.48 1114.64 -142.243 1109.11 -141.426 1101.86C-140.992 1097.98 -138.209 1094.79 -136.855 1091.12C-135.527 1087.45 -136.676 1082.09 -140.558 1081.66C-135.655 1075.28 -129.041 1070.23 -121.559 1067.24C-120.538 1060.5 -127.356 1055.25 -133.74 1052.93C-140.124 1050.61 -147.529 1049.13 -151.513 1043.64C-159.173 1033.08 -147.759 1018.84 -136.013 1013.13C-133.229 1011.77 -130.012 1010.14 -129.399 1007.11C-128.633 1003.41 -132.182 1000.42 -134.276 997.258C-140.149 988.328 -134.276 976.26 -126.82 968.581C-119.363 960.902 -109.839 954.141 -107.055 943.833C-120.972 917.325 -115.431 881.989 -94.0578 860.992C-101.897 853.721 -110.452 844.051 -107.566 833.769C-106.417 829.662 -103.506 826.243 -102.025 822.237C-99.2925 814.839 -101.667 806.7 -102.587 798.867C-103.506 791.035 -102.05 781.569 -94.977 778.049C-91.351 776.237 -86.4737 776.084 -84.482 772.563C-81.9795 768.149 -86.346 763.123 -87.3675 758.174C-89.6146 747.28 -76.0552 740.519 -65.2537 737.789C-73.4762 728.298 -82.005 718.195 -84.4564 705.872C-86.9078 693.549 -80.8048 678.573 -68.5478 675.817C-54.8863 672.756 -37.8287 684.772 -28.023 674.771C-25.4184 672.092 -24.1672 668.419 -23.0181 664.872C-10.71 626.985 1.62364 589.098 13.9317 551.211C15.4383 546.593 17.6599 541.286 22.384 540.189C26.725 539.194 30.8107 542.307 34.1558 545.215C40.0034 550.318 45.8766 555.395 51.7242 560.498C55.3247 548.634 72.3313 549.655 84.2309 553.15C100.088 557.844 117.274 563.483 126.262 577.336C135.378 591.369 135.353 612.698 150.393 620.071C163.033 626.271 182.287 619.816 189.437 631.935C194.289 640.15 189.897 652.932 197.583 658.57C203.43 662.857 211.525 659.336 218.037 656.147C228.736 650.891 240.406 646.63 252.305 647.396C264.205 648.161 276.334 654.999 280.343 666.224C284.199 677.093 280.139 690.156 286.14 700.029C291.247 708.423 301.793 711.408 310.041 716.791C327.89 728.451 334.453 754.474 324.29 773.201C330.572 767.665 336.879 762.128 343.161 756.592C352.813 759.628 352.762 773.431 349.212 782.922C345.663 792.387 340.76 803.638 346.684 811.828C348.523 814.379 351.204 816.191 353.068 818.717C357.384 824.508 356.005 833.718 350.183 837.979C358.226 835.198 362.746 847.393 361.469 855.787C360.167 864.181 359.197 875.662 367.266 878.315C372.986 880.203 378.706 875.483 384.707 874.795C397.321 873.34 404.573 888.801 406.284 901.379C411.187 937.149 404.012 974.449 386.188 1005.86C396.172 1003.18 402.914 1017.18 400.437 1027.21C397.96 1037.24 390.963 1046.22 390.963 1056.55C401.841 1052.77 412.132 1065.63 411.979 1077.14C411.8 1088.65 405.569 1099.08 402.735 1110.23C399.9 1121.38 402.25 1135.87 413 1140C392.572 1145.95 372.143 1151.89 351.74 1157.86C347.91 1158.99 343.952 1160.18 341.041 1162.91C338.436 1165.39 336.981 1168.83 334.759 1171.67C331.184 1176.21 325.771 1178.91 320.357 1180.9C288.617 1192.61 253.148 1185.01 219.748 1190.49C193.931 1194.76 169.775 1206.8 143.805 1210.04C123.045 1212.64 102.029 1209.48 81.3454 1206.34C62.7556 1203.51 44.1402 1200.67 25.5504 1197.87C18.7069 1196.82 11.3016 1195.52 6.55199 1190.49C1.80239 1185.47 2.05774 1175.42 8.59482 1173.09" fill="url(#paint10_linear_426_686)"/>
<path id="Vector_15" d="M411.601 1072.51C395.996 1076.02 380.413 1079.53 364.808 1083.04C357.557 1084.69 349.226 1086.11 343.258 1081.67C337.291 1077.24 339.138 1064.79 346.546 1065.42C339.543 1071.29 328.712 1066.88 321.799 1060.92C314.886 1054.95 308.378 1047.16 299.303 1046.08C296.466 1045.75 293.178 1045.95 291.264 1043.86C288.652 1041 290.656 1036.47 292.705 1033.21C296.083 1027.83 299.483 1022.47 302.861 1017.09C296.511 1016.06 289.958 1017.65 283.586 1016.82C277.213 1015.99 270.368 1011.1 271.088 1004.71C271.471 1001.29 273.925 998.476 275.119 995.235C276.29 991.993 275.277 987.266 271.854 986.884C276.177 981.256 282.009 976.8 288.607 974.166C289.508 968.223 283.496 963.587 277.866 961.538C272.237 959.49 265.706 958.184 262.194 953.345C255.438 944.026 265.504 931.466 275.862 926.424C278.316 925.231 281.154 923.79 281.694 921.111C282.37 917.847 279.24 915.214 277.393 912.423C272.214 904.544 277.393 893.897 283.968 887.122C290.544 880.347 298.943 874.382 301.397 865.288C289.125 841.901 294.012 810.725 312.859 792.2C305.946 785.785 298.403 777.254 300.947 768.183C301.96 764.559 304.527 761.542 305.833 758.008C308.243 751.481 306.149 744.3 305.338 737.39C304.527 730.479 305.811 722.128 312.048 719.022C315.246 717.424 319.547 717.289 321.303 714.183C323.51 710.288 319.66 705.854 318.759 701.487C316.777 691.876 328.734 685.911 338.259 683.502C331.009 675.129 323.488 666.215 321.326 655.343C319.164 644.471 324.546 631.258 335.355 628.827C347.402 626.126 362.444 636.728 371.091 627.904C373.388 625.541 374.491 622.299 375.504 619.17C386.358 585.744 397.234 552.317 408.088 518.891C409.417 514.817 411.376 510.135 415.541 509.167C419.369 508.289 422.972 511.035 425.922 513.601C431.079 518.103 436.258 522.583 441.415 527.084C444.59 516.618 459.587 517.518 470.08 520.602C484.064 524.743 499.218 529.718 507.145 541.941C515.184 554.321 515.161 573.139 528.424 579.644C539.571 585.114 556.549 579.419 562.854 590.111C567.133 597.359 563.26 608.636 570.038 613.611C575.194 617.392 582.333 614.286 588.075 611.472C597.51 606.835 607.801 603.076 618.294 603.751C628.787 604.427 639.483 610.459 643.019 620.363C646.419 629.952 642.839 641.477 648.13 650.188C652.634 657.594 661.934 660.228 669.207 664.977C684.947 675.264 690.735 698.223 681.772 714.745C687.312 709.861 692.874 704.976 698.413 700.092C706.925 702.77 706.88 714.948 703.75 723.321C700.62 731.672 696.296 741.599 701.521 748.824C703.142 751.075 705.506 752.674 707.15 754.902C710.956 760.012 709.74 768.138 704.606 771.897C711.699 769.443 715.685 780.203 714.559 787.608C713.41 795.014 712.554 805.143 719.67 807.484C724.714 809.15 729.758 804.985 735.05 804.378C746.174 803.095 752.569 816.735 754.078 827.832C758.401 859.391 752.074 892.299 736.356 920.008C745.161 917.645 751.105 930.003 748.921 938.849C746.737 947.695 740.567 955.618 740.567 964.735C750.16 961.403 759.234 972.748 759.099 982.9C758.942 993.051 753.447 1002.26 750.948 1012.09C748.448 1021.93 750.52 1034.72 760 1038.36C741.986 1043.61 723.971 1048.85 705.979 1054.12C702.602 1055.11 699.111 1056.17 696.544 1058.58C694.247 1060.76 692.964 1063.8 691.005 1066.3C687.852 1070.3 683.078 1072.69 678.305 1074.45C650.315 1084.78 619.037 1078.07 589.583 1082.91C566.818 1086.67 545.516 1097.29 522.615 1100.15C504.308 1102.45 485.775 1099.66 467.536 1096.89C451.142 1094.39 434.727 1091.89 418.334 1089.41C412.299 1088.49 405.769 1087.34 401.58 1082.91C397.392 1078.47 397.617 1069.61 403.382 1067.56" fill="url(#paint11_linear_426_686)"/>
</g>
<g id="introright">
<g id="Frame_3" clip-path="url(#clip4_426_686)">
<g id="Group_17">
<g id="Group_18">
<path id="Vector_16" d="M1271.27 416.684C1259.56 411.504 1247.14 405.724 1240.64 395.135C1234.13 384.547 1237.35 367.834 1249.77 364.486C1231.2 352.896 1217.59 331.833 1221.62 311.086C1225.68 290.338 1252.04 274.57 1271.59 284.615C1260.4 267.187 1248.91 248.843 1247.77 228.467C1246.64 208.092 1259.8 185.455 1281.09 182.594C1296.4 180.562 1310.88 188.832 1323.9 196.788C1319.21 183.166 1333.69 167.312 1348.56 169.744C1342.02 156.037 1335.48 142.329 1328.94 128.621C1323 116.144 1318.08 99.1166 1329.45 90.7317C1340.47 82.6044 1356.2 90.5028 1367.45 98.344C1342.92 67.3799 1331.45 23.9387 1349.72 -10.717C1367.99 -45.3727 1422.09 -61.5701 1452.24 -35.4138C1441.04 -52.9563 1434.27 -73.0457 1432.69 -93.5072C1439.19 -77.0522 1457.64 -65.6052 1476.15 -66.5496C1495.47 -67.5512 1511.74 -80.2573 1530.25 -85.6946C1562.79 -95.2528 1601.48 -78.2827 1614.94 -48.5778C1621.99 -64.0885 1595.63 -85.2081 1609.57 -95.6821C1616.35 -100.805 1626.38 -96.512 1633.15 -91.3895C1652.26 -76.9949 1665.99 -56.2759 1671.4 -33.6968C1673.49 -24.9685 1674.62 -15.4389 1680.83 -8.71377C1690.24 1.47403 1706.77 0.930309 1720.3 5.25154C1740.84 11.7763 1755.02 30.4349 1761.11 50.1523C1767.2 69.8697 1766.45 90.8462 1765.65 111.394C1776.63 103.638 1792.48 102.665 1804.4 109.076C1816.31 115.486 1823.65 128.822 1822.34 141.757C1821.8 146.994 1820.04 152.574 1822.52 157.267C1826.01 163.878 1835.3 164.679 1842.79 166.654C1870.13 173.923 1881.24 211.955 1861.75 231.529C1874.34 223.23 1892.41 226.407 1904.56 235.307C1916.71 244.207 1924.14 257.571 1930.65 270.764C1944.98 299.868 1956.65 330.918 1957.25 363.055C1957.85 395.192 1946.02 428.732 1920.05 449.337C1894.08 469.941 1852.91 474.119 1826.34 454.202C1844.13 463.102 1861.93 472.002 1879.72 480.902C1884.76 483.42 1890.23 486.367 1892.17 491.461C1895.15 499.188 1887.84 507.716 1879.42 509.691C1871 511.694 1862.22 509.118 1853.98 506.571C1823.29 497.099 1792.6 487.627 1761.91 478.154C1781.86 497.128 1769.29 532.899 1744.15 545.09C1718.98 557.281 1688.27 551.701 1662.23 541.284C1678.77 549.555 1698.18 565.294 1689.94 581.206C1687.64 585.641 1683.49 588.932 1679.25 591.794C1638.74 619.324 1579.75 619.381 1539.17 591.937C1524.25 609.337 1499.65 617.464 1476 617.349C1452.36 617.235 1429.4 609.823 1407.79 600.694C1371.6 585.412 1337.81 565.065 1307.78 540.569C1321.33 546.063 1318.64 567.67 1305.51 574.051C1292.37 580.433 1275.95 574.853 1264.82 565.666C1253.68 556.48 1246.04 544.146 1236.1 533.815C1220.78 517.904 1200.36 507.144 1184.54 491.662C1168.72 476.18 1157.79 452.57 1167.67 433.168C1175.55 417.686 1194.69 409.673 1212.81 409.387C1230.93 409.1 1248.43 415.11 1265.44 421.005L1271.27 416.684Z" fill="url(#paint12_linear_426_686)"/>
</g>
<g id="Group_19">
<path id="Vector_17" d="M1323.93 446.217C1312.23 440.98 1299.81 435.171 1293.3 424.468C1286.79 413.765 1290.01 396.881 1302.43 393.504C1283.86 381.799 1270.25 360.537 1274.28 339.589C1278.34 318.641 1304.7 302.73 1324.26 312.86C1313.06 295.26 1301.57 276.716 1300.43 256.14C1299.3 235.564 1312.46 212.699 1333.75 209.837C1349.07 207.777 1363.54 216.133 1376.56 224.146C1371.87 210.41 1386.35 194.355 1401.22 196.845C1394.68 182.994 1388.14 169.172 1381.61 155.321C1375.67 142.73 1370.74 125.531 1382.11 117.06C1393.13 108.847 1408.86 116.831 1420.12 124.758C1395.58 93.479 1384.11 49.6085 1402.38 14.6095C1420.65 -20.3896 1474.75 -36.7302 1504.9 -10.3449C1493.68 -28.0591 1486.9 -48.3202 1485.32 -69.0106C1491.83 -52.3839 1510.28 -40.8225 1528.79 -41.7955C1548.1 -42.7971 1564.37 -55.6463 1582.88 -61.1122C1615.42 -70.7563 1654.11 -53.6431 1667.58 -23.652C1674.62 -39.3057 1648.26 -60.6257 1662.2 -71.2428C1668.98 -76.3939 1679.01 -72.0727 1685.79 -66.8929C1704.89 -52.3553 1718.63 -31.436 1724.03 -8.62788C1726.12 0.186286 1727.25 9.80174 1733.46 16.5841C1742.87 26.8577 1759.41 26.3426 1772.93 30.6638C1793.47 37.2458 1807.65 56.0761 1813.74 76.0224C1819.83 95.9688 1819.09 117.117 1818.28 137.865C1829.27 130.023 1845.12 129.05 1857.03 135.518C1868.94 141.986 1876.29 155.464 1874.97 168.543C1874.43 173.837 1872.67 179.474 1875.15 184.196C1878.64 190.864 1887.93 191.665 1895.42 193.669C1922.77 200.995 1933.87 239.428 1914.38 259.202C1926.98 250.818 1945.04 254.023 1957.19 263.009C1969.34 271.994 1976.77 285.502 1983.28 298.809C1997.61 328.199 2009.28 359.564 2009.88 392.016C2010.48 424.468 1998.66 458.322 1972.68 479.156C1946.71 499.961 1905.54 504.168 1878.97 484.078C1896.77 493.064 1914.56 502.05 1932.35 511.036C1937.4 513.583 1942.86 516.559 1944.8 521.71C1947.79 529.523 1940.47 538.108 1932.05 540.14C1923.63 542.143 1914.86 539.567 1906.62 536.992C1875.93 527.433 1845.24 517.847 1814.55 508.288C1834.49 527.462 1821.92 563.577 1796.78 575.883C1771.62 588.188 1740.9 582.551 1714.87 572.019C1731.4 580.376 1750.81 596.258 1742.57 612.341C1740.27 616.834 1736.12 620.125 1731.88 623.044C1691.37 650.832 1632.38 650.889 1591.81 623.187C1576.88 640.758 1552.28 648.972 1528.64 648.857C1504.99 648.743 1482.03 641.245 1460.42 632.03C1424.24 616.605 1390.44 596.058 1360.41 571.304C1373.96 576.856 1371.28 598.662 1358.14 605.101C1345.01 611.54 1328.59 605.931 1317.45 596.63C1306.34 587.358 1298.67 574.91 1288.73 564.464C1273.42 548.41 1253 537.535 1237.17 521.91C1221.35 506.285 1210.42 482.447 1220.31 462.844C1228.19 447.19 1247.32 439.12 1265.44 438.834C1283.57 438.548 1301.06 444.615 1318.08 450.567L1323.93 446.217Z" fill="url(#paint13_linear_426_686)"/>
</g>
<g id="Group_20">
<path id="Vector_18" d="M1533.02 586.815C1516.87 592.538 1495.74 597.117 1484.84 584.325C1481.97 580.977 1480.33 576.799 1477.71 573.25C1470.93 564.064 1458.78 560.258 1447.25 558.226C1435.73 556.223 1423.64 555.336 1413.4 549.841C1403.16 544.375 1395.4 532.413 1399.64 521.939C1404.06 510.979 1419.46 505.942 1421.64 494.38C1423.37 485.194 1415.91 477.124 1411.25 468.94C1405.13 458.179 1403.58 444.844 1408.35 433.483C1413.1 422.121 1424.48 413.221 1437.22 412.191C1441.16 411.876 1445.52 412.163 1448.66 409.816C1451.4 407.756 1452.36 404.264 1453.17 401.03C1457.11 385.405 1461.7 369.237 1472.78 357.189C1488.78 339.732 1517.74 334.695 1539.14 345.684C1546.46 349.433 1553.41 354.956 1561.71 355.157C1566.61 355.271 1571.33 353.44 1575.78 351.465C1599.6 340.705 1622.88 323.162 1648.98 326.711C1666.68 329.115 1681.19 340.991 1694.18 352.753C1697.31 355.586 1700.5 358.505 1704.45 360.165C1717.25 365.545 1730.93 356.015 1743.97 351.122C1769.02 341.735 1800.37 351.665 1814.61 373.558C1828.85 395.421 1824.43 426.786 1804.61 444.243C1818.31 436.487 1838.79 445.073 1842.13 459.982C1845.53 475.121 1833.06 489.83 1818.61 496.756C1804.16 503.681 1787.62 505.398 1772.39 510.607C1769.59 511.58 1766.66 512.753 1764.87 515.042C1762.69 517.818 1762.63 521.567 1761.68 524.915C1758.42 536.419 1745.32 542.172 1733.7 546.407C1696.83 559.886 1659.96 573.393 1623.09 586.872C1614.62 589.963 1606.08 593.082 1597.18 594.856C1572.73 599.664 1547.5 593.883 1523.29 588.102" fill="#244B52"/>
</g>
<g id="Group_21">
<path id="Vector_19" d="M1632.89 888.671C1631.04 899.431 1629.18 910.192 1627.33 920.952C1625.9 929.337 1624.98 939.295 1631.54 945.019C1636.05 948.968 1642.71 949.483 1648.8 949.769C1678.56 951.258 1708.86 952.717 1737.7 945.448C1716.93 892.449 1695.97 838.591 1690.95 782.186C1689.58 766.732 1689.4 751.193 1686.92 735.883C1685.52 727.298 1683.4 718.77 1682.95 710.099C1682.2 695.704 1686.06 681.51 1689.67 667.516C1694.98 646.969 1699.85 625.992 1698.77 604.844C1697.16 573.794 1682.86 544.633 1678.29 513.869C1673.73 483.048 1679.01 451.769 1684.32 421.091C1679.88 425.498 1675.46 429.905 1671.01 434.341L1664.32 429.648C1661.64 479.013 1664.2 528.607 1671.97 577.457C1674.65 594.427 1677.88 612.313 1671.46 628.31C1670.62 630.399 1669.58 632.488 1667.79 633.89C1661.31 639.099 1652.02 632.402 1646.62 626.192L1652.8 631.029C1636.32 616.834 1626.62 596.774 1619.96 576.541C1613.3 556.309 1609.18 535.303 1601.54 515.357C1584.61 471.286 1550.7 433.425 1541.2 387.351C1536.22 391.358 1531.23 395.364 1526.25 399.371C1525.47 400 1524.67 400.658 1524.31 401.574C1523.74 403.091 1524.64 404.751 1525.5 406.124C1560.19 462.129 1587.15 522.511 1605.42 585.241C1580.34 580.462 1560.73 561.431 1547 540.741C1533.26 520.05 1523.71 496.956 1509.14 476.809L1503.53 464.733C1506.04 487.999 1518.75 509.147 1533.23 527.977C1547.71 546.808 1564.31 564.264 1576.46 584.554C1591.99 610.539 1599.6 640.043 1607 669.147C1620.26 721.088 1633.57 773.601 1633.57 827.058C1633.57 858.394 1629.01 890.131 1635.48 920.866" fill="url(#paint14_linear_426_686)"/>
</g>
</g>
</g>
<path id="Vector_20" d="M1580.34 1133.23C1595.54 1136.65 1610.72 1140.08 1625.92 1143.5C1632.98 1145.1 1641.09 1146.48 1646.91 1142.16C1652.72 1137.84 1650.92 1125.71 1643.7 1126.32C1650.53 1132.05 1661.07 1127.75 1667.81 1121.93C1674.54 1116.12 1680.88 1108.53 1689.72 1107.47C1692.48 1107.15 1695.68 1107.34 1697.55 1105.3C1700.09 1102.52 1698.14 1098.11 1696.14 1094.93C1692.85 1089.68 1689.54 1084.46 1686.25 1079.22C1692.44 1078.21 1698.82 1079.77 1705.03 1078.95C1711.23 1078.14 1717.9 1073.38 1717.2 1067.15C1716.83 1063.82 1714.44 1061.07 1713.27 1057.91C1712.13 1054.76 1713.12 1050.15 1716.45 1049.78C1712.24 1044.29 1706.56 1039.95 1700.14 1037.38C1699.26 1031.59 1705.12 1027.07 1710.6 1025.07C1716.08 1023.08 1722.44 1021.8 1725.86 1017.09C1732.44 1008 1722.64 995.761 1712.55 990.847C1710.16 989.684 1707.4 988.28 1706.87 985.669C1706.21 982.488 1709.26 979.921 1711.06 977.201C1716.1 969.522 1711.06 959.145 1704.65 952.541C1698.25 945.938 1690.07 940.124 1687.68 931.26C1699.63 908.466 1694.87 878.08 1676.52 860.024C1683.25 853.772 1690.6 845.457 1688.12 836.615C1687.13 833.083 1684.63 830.143 1683.36 826.699C1681.01 820.337 1683.05 813.338 1683.84 806.603C1684.63 799.867 1683.38 791.728 1677.3 788.701C1674.19 787.143 1670 787.011 1668.29 783.984C1666.14 780.188 1669.89 775.866 1670.77 771.61C1672.7 762.242 1661.05 756.428 1651.78 754.081C1658.84 745.919 1666.16 737.232 1668.27 726.635C1670.37 716.038 1665.13 703.16 1654.6 700.791C1642.87 698.158 1628.22 708.491 1619.8 699.891C1617.56 697.588 1616.49 694.428 1615.5 691.379C1604.93 658.799 1594.33 626.22 1583.76 593.64C1582.47 589.669 1580.56 585.106 1576.5 584.163C1572.77 583.307 1569.26 585.984 1566.39 588.485C1561.37 592.873 1556.32 597.238 1551.3 601.626C1548.21 591.425 1533.6 592.302 1523.38 595.308C1509.76 599.345 1495 604.193 1487.28 616.106C1479.45 628.172 1479.47 646.514 1466.55 652.854C1455.7 658.185 1439.16 652.635 1433.02 663.056C1428.85 670.12 1432.62 681.111 1426.02 685.96C1421 689.646 1414.05 686.618 1408.46 683.876C1399.27 679.356 1389.24 675.692 1379.02 676.351C1368.8 677.009 1358.38 682.888 1354.94 692.542C1351.63 701.888 1355.12 713.12 1349.96 721.611C1345.57 728.829 1336.52 731.396 1329.43 736.025C1314.1 746.051 1308.46 768.429 1317.19 784.532C1311.8 779.771 1306.38 775.011 1300.99 770.25C1292.7 772.861 1292.74 784.73 1295.79 792.891C1298.84 801.03 1303.05 810.705 1297.96 817.748C1296.38 819.942 1294.08 821.499 1292.48 823.671C1288.77 828.652 1289.95 836.572 1294.95 840.235C1288.05 837.844 1284.16 848.331 1285.26 855.549C1286.38 862.767 1287.21 872.639 1280.28 874.921C1275.37 876.544 1270.46 872.486 1265.3 871.893C1254.47 870.643 1248.24 883.938 1246.77 894.754C1242.56 925.512 1248.72 957.587 1264.03 984.594C1255.45 982.291 1249.66 994.335 1251.79 1002.96C1253.92 1011.58 1259.93 1019.3 1259.93 1028.19C1250.58 1024.94 1241.75 1036 1241.88 1045.89C1242.03 1055.79 1247.38 1064.76 1249.82 1074.35C1252.25 1083.93 1250.23 1096.4 1241 1099.95C1258.55 1105.06 1276.09 1110.17 1293.62 1115.31C1296.91 1116.27 1300.31 1117.3 1302.81 1119.65C1305.04 1121.78 1306.29 1124.74 1308.2 1127.18C1311.27 1131.08 1315.92 1133.41 1320.57 1135.12C1347.83 1145.19 1378.3 1138.65 1406.99 1143.37C1429.16 1147.03 1449.91 1157.39 1472.21 1160.17C1490.04 1162.41 1508.09 1159.69 1525.86 1156.99C1541.83 1154.56 1557.82 1152.12 1573.78 1149.71C1579.66 1148.81 1586.02 1147.69 1590.1 1143.37C1594.18 1139.05 1593.96 1130.4 1588.35 1128.4" fill="url(#paint15_linear_426_686)"/>
<path id="Vector_21" d="M1753.98 750.083C1802.17 765.078 1854.98 766.598 1904.05 754.387C1910.72 752.726 1917.82 750.48 1921.76 745.17C1925.69 739.837 1924.02 730.643 1917.29 729.216C1945.77 728.585 1974.14 724.631 2001.59 717.473C2014.11 714.198 2026.88 710.034 2036.24 701.566C2045.6 693.098 2050.65 679.273 2044.99 668.278C2051.21 661.026 2056 652.675 2059 643.786C2052.43 640.581 2044.53 639.926 2037.46 641.984C2046.79 625.001 2029.4 601.257 2009.22 603.456C2021.05 577.467 2032.89 551.477 2044.72 525.465C2048.74 516.622 2051.5 503.967 2042.51 499.428C2038.15 497.229 2032.86 498.212 2028.05 499.265C2013.45 502.423 1998.82 505.581 1984.22 508.715C1993.02 489.136 2001.03 464.246 1985.76 448.572C1981.11 443.8 1974.49 440.244 1972.28 434.116C1968.16 422.7 1981.91 410.84 1978.58 399.19C1977.02 393.763 1971.94 389.576 1970.85 384.031C1968.77 373.435 1981.27 366.136 1991.19 360.756C2029.59 339.913 2055.2 299.583 2056.47 257.874C2056.63 252.283 2056.34 246.435 2053.44 241.569C2046.58 229.966 2029 229.148 2015.39 232.68C2001.77 236.212 1988.1 242.598 1974.25 240.072C1977.63 222.902 1981 205.708 1984.38 188.538C1984.99 185.496 1985.45 181.964 1983.26 179.648C1979.54 175.695 1972.28 178.946 1967.18 176.748C1960.34 173.777 1962.04 164.396 1964.06 157.589C1974.36 123.084 1964.2 86.498 1955.21 51.666C1911.46 -117.605 1895.62 -293.215 1908.41 -467C1875.99 -460.099 1863.25 -423.092 1861.18 -391.862C1859.1 -360.633 1860.41 -325.497 1837.32 -302.993C1832.88 -298.665 1827.62 -294.946 1824.16 -289.869C1818.05 -280.863 1819.06 -268.091 1826.56 -260.044C1812.75 -255.786 1809.3 -239.388 1806.69 -225.937C1804.08 -212.486 1795.87 -196.251 1781.37 -197.281C1790.6 -187.994 1786.59 -172.788 1779.83 -161.77C1773.08 -150.752 1763.82 -139.992 1763.93 -127.266C1764.06 -112.388 1777.12 -97.1358 1769.73 -83.9656C1761.56 -69.4153 1736.91 -72.8307 1724.57 -61.181C1708.96 -46.4435 1723 -19.9161 1713.43 -1.155C1709.04 7.43018 1700.35 13.138 1692.9 19.5711C1645.27 60.7892 1649.5 131.389 1657.43 191.813C1649.9 183.531 1634.61 186.245 1626.87 194.362C1619.13 202.48 1616.95 213.872 1615.09 224.633C1611.71 243.932 1608.36 263.207 1604.99 282.507C1597.46 280.495 1589.94 278.46 1582.38 276.448C1557.55 316.169 1607.83 368.007 1589.88 410.863C1580.34 406.629 1572.04 399.915 1566.16 391.658C1553.16 401.389 1558.42 421.203 1567.7 434.162C1577.01 447.122 1589.78 460.011 1588.69 475.591C1587.62 490.867 1573.69 501.978 1563.53 513.932C1528.99 554.682 1540.1 622.451 1586.08 651.505C1571.67 659.693 1550.71 643.084 1537.18 652.534C1529.52 657.891 1529.44 669.26 1534.44 676.91C1539.41 684.559 1548 689.378 1556.24 693.87C1577.78 705.636 1599.32 717.426 1620.86 729.193C1615.84 735.041 1610.81 740.889 1605.78 746.737C1673.41 762.995 1744.3 767.136 1813.52 758.832" fill="url(#paint16_linear_426_686)"/>
<path id="Vector_22" d="M1864.77 1107.71C1879.72 1111.08 1894.64 1114.44 1909.59 1117.8C1916.54 1119.38 1924.52 1120.73 1930.24 1116.49C1935.96 1112.24 1934.19 1100.32 1927.09 1100.92C1933.8 1106.55 1944.17 1102.32 1950.8 1096.61C1957.42 1090.9 1963.65 1083.44 1972.35 1082.4C1975.07 1082.08 1978.22 1082.27 1980.05 1080.27C1982.55 1077.53 1980.63 1073.2 1978.67 1070.07C1975.43 1064.92 1972.17 1059.79 1968.94 1054.63C1975.02 1053.64 1981.3 1055.17 1987.4 1054.38C1993.51 1053.58 2000.07 1048.9 1999.38 1042.78C1999.01 1039.5 1996.66 1036.81 1995.52 1033.7C1994.39 1030.6 1995.37 1026.07 1998.64 1025.7C1994.5 1020.31 1988.91 1016.04 1982.59 1013.52C1981.73 1007.83 1987.49 1003.39 1992.88 1001.43C1998.28 999.466 2004.53 998.215 2007.9 993.58C2014.37 984.655 2004.73 972.625 1994.8 967.796C1992.45 966.653 1989.73 965.274 1989.22 962.708C1988.57 959.582 1991.57 957.06 1993.34 954.386C1998.3 946.841 1993.34 936.643 1987.04 930.154C1980.74 923.665 1972.69 917.952 1970.34 909.242C1982.1 886.842 1977.42 856.984 1959.36 839.241C1965.98 833.096 1973.21 824.926 1970.77 816.237C1969.8 812.766 1967.34 809.877 1966.09 806.493C1963.78 800.241 1965.79 793.363 1966.57 786.745C1967.34 780.126 1966.11 772.128 1960.14 769.153C1957.07 767.622 1952.95 767.493 1951.27 764.518C1949.16 760.788 1952.85 756.541 1953.71 752.359C1955.61 743.153 1944.15 737.44 1935.03 735.133C1941.97 727.113 1949.18 718.576 1951.25 708.163C1953.32 697.75 1948.16 685.095 1937.81 682.767C1926.27 680.18 1911.86 690.334 1903.58 681.883C1901.37 679.619 1900.32 676.515 1899.35 673.518C1888.95 641.503 1878.53 609.488 1868.13 577.473C1866.86 573.571 1864.98 569.087 1860.99 568.16C1857.32 567.319 1853.87 569.949 1851.05 572.407C1846.11 576.719 1841.14 581.009 1836.2 585.321C1833.16 575.296 1818.8 576.158 1808.74 579.112C1795.35 583.079 1780.83 587.843 1773.24 599.55C1765.53 611.407 1765.56 629.43 1752.85 635.661C1742.17 640.899 1725.91 635.445 1719.87 645.685C1715.77 652.627 1719.48 663.428 1712.98 668.193C1708.04 671.815 1701.21 668.84 1695.7 666.145C1686.67 661.704 1676.81 658.103 1666.75 658.75C1656.7 659.397 1646.45 665.175 1643.07 674.661C1639.81 683.845 1643.24 694.883 1638.17 703.226C1633.86 710.319 1624.95 712.841 1617.98 717.39C1602.9 727.243 1597.36 749.233 1605.94 765.057C1600.64 760.378 1595.31 755.7 1590 751.022C1581.85 753.587 1581.89 765.251 1584.89 773.271C1587.89 781.269 1592.03 790.776 1587.02 797.697C1585.47 799.853 1583.2 801.383 1581.63 803.518C1577.98 808.411 1579.15 816.194 1584.07 819.795C1577.27 817.445 1573.45 827.75 1574.53 834.843C1575.63 841.935 1576.45 851.637 1569.64 853.879C1564.8 855.474 1559.97 851.486 1554.9 850.904C1544.25 849.675 1538.12 862.74 1536.67 873.368C1532.53 903.594 1538.59 935.113 1553.65 961.652C1545.22 959.388 1539.52 971.224 1541.61 979.696C1543.71 988.169 1549.62 995.758 1549.62 1004.49C1540.43 1001.3 1531.73 1012.16 1531.86 1021.89C1532.01 1031.61 1537.28 1040.43 1539.67 1049.85C1542.07 1059.27 1540.08 1071.52 1531 1075.01C1548.26 1080.03 1565.52 1085.05 1582.75 1090.1C1585.99 1091.05 1589.33 1092.06 1591.79 1094.37C1593.99 1096.46 1595.22 1099.37 1597.1 1101.76C1600.12 1105.6 1604.69 1107.89 1609.26 1109.57C1636.08 1119.46 1666.04 1113.04 1694.26 1117.67C1716.07 1121.27 1736.48 1131.45 1758.42 1134.19C1775.95 1136.39 1793.71 1133.71 1811.18 1131.06C1826.89 1128.67 1842.61 1126.27 1858.32 1123.9C1864.1 1123.02 1870.35 1121.92 1874.37 1117.67C1878.38 1113.43 1878.16 1104.93 1872.64 1102.97" fill="url(#paint17_linear_426_686)"/>
<g id="Frame_4" clip-path="url(#clip5_426_686)">
<g id="Group_22">
<g id="Group_23">
<path id="Vector_23" d="M976.91 925.151C983.516 947.381 995.528 967.134 1007.41 986.639C1001.5 978.532 987.215 981.541 981.462 990.603C975.708 999.63 977.289 1011.67 982.631 1020.2C987.973 1028.73 996.35 1034.57 1004.54 1040.27C1035.23 1061.47 1067.28 1083.14 1104.43 1088.91C1099.5 1090.5 1095.48 1098.82 1098.52 1103.99C1102.53 1110.71 1111.44 1111.84 1119.32 1112.23C1145.3 1113.47 1171.38 1113.58 1197.49 1112.55C1194.49 1112.27 1191.45 1112.02 1188.48 1111.7C1181.97 1111.03 1174.54 1109.58 1171.09 1102.75C1168.41 1097.51 1171.54 1089.44 1175.58 1088.02C1144.76 1080.87 1117.7 1058.14 1091.75 1036.02C1084.83 1030.11 1077.75 1023.98 1073.13 1015.31C1068.52 1006.64 1066.87 994.674 1071.43 985.931C1075.95 977.187 1087.71 974.745 1092.83 982.993C1082.49 963.24 1072.09 943.169 1066.05 920.903C1060.01 898.602 1058.75 873.363 1066.65 851.982C1079.04 818.424 1112.46 796.229 1112.52 759.343C1112.55 734.847 1097.79 706.634 1111.22 688.652C1116.76 694.563 1122.26 700.475 1127.79 706.387C1106.51 630.81 1085.3 547.163 1109.14 472.79C1115.11 482.135 1122.92 489.675 1131.68 494.595C1128.1 464.577 1124.59 433.426 1131.55 404.328C1138.5 375.231 1158.99 348.682 1183.55 349.071C1181.81 337.177 1180.07 324.894 1182.28 313.07C1184.5 301.283 1191.7 290.026 1201.41 288.539C1209.22 287.3 1219.59 291.017 1223.13 282.344C1224.33 279.442 1224.17 276.008 1223.98 272.751C1222.62 249.848 1221.26 226.945 1219.9 204.078C1219.52 197.104 1219.14 189.812 1221.51 183.511C1223 179.546 1225.97 176.183 1229.29 174.909C1223.44 152.324 1218.86 129.28 1215.51 105.952C1221.83 118.2 1228.18 130.413 1234.54 142.661C1236.4 146.271 1240.07 150.378 1242.79 147.723C1243.8 146.731 1244.21 145.103 1244.46 143.546C1246.68 130.023 1240.26 116.855 1238.14 103.297C1235.99 89.7394 1242.44 71.2613 1253.47 73.7392C1258.69 74.9074 1265.8 79.6508 1267.92 73.5976C1261.47 56.4292 1255.05 39.2962 1248.64 22.1277C1247.88 20.0746 1247.09 17.9153 1247.28 15.7205C1248 6.80005 1259.1 9.77356 1266.08 7.29565C1273.58 4.60534 1276.74 -6.19127 1278.35 -15.6074C1289.1 -77.9446 1281.35 -147.432 1308.7 -201.486C1315.08 -187.256 1319.66 -171.893 1322.35 -155.964C1320.93 -178.477 1315.08 -200.389 1305.03 -219.823C1270.26 -163.964 1277.5 -94.1219 1262.58 -30.6872C1260.33 -21.0942 1256.16 -10.0497 1247.02 -6.97005C1238.52 -4.13815 1225.15 -6.61606 1224.01 2.41063C1223.73 4.67616 1224.58 6.83546 1225.43 8.81779C1232.7 25.88 1239.97 42.8714 1247.24 59.8983C1244.49 66.093 1236.02 61.6328 1229.73 60.7124C1216.49 58.7655 1208.11 77.7039 1210.29 91.297C1212.44 104.855 1219.81 117.881 1216.74 131.652C1216.39 133.209 1215.82 134.908 1214.56 135.935C1211.18 138.767 1206.88 134.802 1204.73 131.227C1197.43 119.191 1190.12 107.12 1182.82 95.0847C1186.17 118.448 1191.04 141.563 1197.39 164.077C1193.38 165.528 1189.68 169.068 1187.75 173.139C1184.69 179.617 1184.91 186.98 1185.19 193.989C1186.14 217.069 1187.06 240.113 1187.97 263.229C1188.1 266.486 1188.23 269.955 1186.68 272.928C1182.09 281.813 1169.61 278.592 1160.16 280.185C1148.37 282.167 1139.29 293.849 1136.23 305.884C1133.22 317.885 1134.93 330.239 1136.67 342.168C1106.99 342.947 1081.35 370.7 1072.06 400.399C1062.76 430.134 1066.05 461.427 1069.47 491.622C1059 487.055 1049.77 479.763 1042.85 470.595C1011.71 546.915 1034.88 630.315 1058.31 705.714C1051.8 700.015 1045.32 694.28 1038.8 688.545C1021.95 707.378 1038.99 735.201 1038.2 759.945C1037 797.184 995.876 821.185 979.849 855.663C969.513 877.469 970.303 902.85 976.91 925.151Z" fill="url(#paint18_linear_426_686)"/>
</g>
<g id="Group_24">
<path id="Vector_24" d="M1365.02 63.863C1369.54 81.5624 1374.09 99.2618 1378.62 116.961C1398.43 194.343 1418.25 271.902 1430.9 350.876C1435.59 380.328 1443.64 415.621 1470.9 424.789C1482.8 428.789 1497.38 427.196 1506.05 436.577C1516.38 447.728 1511.05 466.383 1502.96 479.41C1494.87 492.436 1484.19 505.64 1485.38 521.074C1496.98 510.49 1509.55 501.074 1522.91 493.003C1530.93 488.153 1542.05 484.188 1548.57 491.02C1551.7 494.312 1552.62 499.162 1553.27 503.728C1559.83 550.03 1551.43 598.491 1529.81 639.518C1522.91 652.616 1514.75 669.359 1523.56 681.218C1526 684.475 1529.47 686.811 1531.82 690.139C1541.03 703.13 1528.89 720.688 1527.94 736.794C1525.97 770.175 1572.54 794.53 1563.23 826.566C1560.47 836.052 1553.13 843.238 1548.37 851.84C1543.61 860.442 1542.29 873.044 1549.93 878.956C1561.12 887.558 1579.71 873.823 1589.98 883.558C1584.98 923.098 1551.19 950.391 1526.38 980.763C1520.91 987.453 1515.74 997.577 1521.14 1004.34C1531.17 1016.83 1554.56 993.506 1564.96 1005.68C1562.68 1012.13 1560.37 1018.57 1558.09 1024.98C1561.73 1018.92 1571.96 1022.11 1574.03 1028.91C1576.11 1035.7 1572.37 1043.03 1567.44 1048.02C1562.51 1053.01 1556.39 1056.59 1551.77 1061.83C1540.01 1075.21 1535.83 1100.06 1518.42 1100.8C1524.71 1107.31 1529.2 1115.74 1531.14 1124.77C1491.64 1128.13 1451.87 1128.3 1412.37 1125.3C1408.26 1141.93 1388.13 1147.95 1371.72 1146.29C1355.3 1144.62 1338.74 1138.32 1322.7 1142.25L1322.46 1142.61C1314.78 1143.31 1307.03 1142.96 1299.45 1141.51C1296.93 1141.05 1294.42 1140.45 1291.87 1140.31C1288.44 1140.13 1285 1140.77 1281.6 1141.4C1277.73 1142.15 1273.85 1142.89 1269.94 1143.6L1282.35 1143C1243.09 1144.59 1203.73 1143.7 1164.57 1140.31C1156.58 1139.6 1147.44 1138.11 1143.19 1131.07C1138.94 1123.99 1146.79 1111.88 1153.39 1116.62C1113.51 1110.36 1078.81 1085.79 1045.67 1061.93C1037.17 1055.81 1028.47 1049.47 1022.79 1040.48C1017.11 1031.49 1015.11 1019.1 1020.68 1010.04C1026.26 1000.98 1040.7 998.462 1046.96 1006.99C1034.28 986.533 1021.46 965.754 1014.05 942.638C1006.64 919.523 1005.08 893.434 1014.8 871.239C1030.03 836.477 1071.13 813.468 1071.19 775.273C1071.23 749.892 1053.08 720.652 1069.6 702.033C1076.4 708.157 1083.16 714.281 1089.96 720.405C1063.82 642.102 1037.71 555.517 1066.98 478.418C1074.32 488.082 1083.91 495.905 1094.68 501.038C1090.3 469.958 1085.98 437.674 1094.51 407.515C1103.04 377.355 1128.27 349.921 1158.42 350.275C1156.28 337.956 1154.13 325.177 1156.85 312.964C1159.57 300.752 1168.44 289.106 1180.38 287.548C1189.93 286.309 1202.71 290.097 1207.09 281.176C1208.59 278.167 1208.39 274.592 1208.15 271.229C1206.48 247.512 1204.82 223.795 1203.15 200.042C1202.64 192.856 1202.2 185.281 1205.12 178.732C1208.05 172.183 1215.56 167.263 1221.98 169.989L1219.13 183.865C1209.85 156.006 1202.67 127.404 1197.71 98.3768C1205.5 111.05 1213.31 123.722 1221.1 136.395C1223.41 140.147 1227.9 144.395 1231.26 141.634C1232.49 140.608 1233.03 138.944 1233.34 137.315C1236.05 123.298 1228.17 109.669 1225.55 95.6157C1222.9 81.5624 1230.85 62.4824 1244.38 64.9957C1250.81 66.1993 1259.58 71.1197 1262.19 64.8896C1254.27 47.1194 1246.35 29.3492 1238.47 11.5436C1237.52 9.45504 1236.56 7.1895 1236.8 4.88857C1237.69 -4.35051 1251.35 -1.27081 1259.92 -3.85492C1269.13 -6.65143 1273 -17.8021 1275.01 -27.5721C1288.3 -92.0687 1278.78 -164.034 1312.4 -220C1330.11 -186.725 1336.64 -147.149 1330.59 -109.627C1328.95 -99.4671 1326.4 -89.2722 1327.25 -78.9712C1328.21 -67.5728 1333.27 -57.0593 1337.89 -46.6875C1352.2 -14.51 1362.95 19.4021 1369.81 54.1283L1368.35 48.6769C1368.62 52.8894 1367.13 57.031 1366.75 61.2435C1366 69.81 1369.91 78.1287 1369.85 86.7306" fill="url(#paint19_linear_426_686)"/>
</g>
<g id="Group_25">
<path id="Vector_25" d="M1268.47 1037.08C1301.86 1043.31 1336.76 1046.46 1369.36 1036.94C1401.93 1027.42 1431.88 1002.99 1439.84 970.001C1442.57 958.78 1442.22 945.718 1434.43 937.187C1429.86 932.195 1423.38 929.505 1418.04 925.399C1404.27 914.886 1399.1 896.443 1398.25 879.133C1397.36 861.823 1399.88 844.371 1397.58 827.203C1394.92 807.379 1385.65 788.512 1371.63 774.281C1362.74 765.255 1351.31 757.856 1338.67 757.148C1319.13 756.051 1302.1 770.671 1282.74 773.538C1241 779.662 1199.3 730.989 1162.1 750.883C1146.45 759.272 1138.63 777.644 1136.5 795.273C1134.38 812.902 1136.71 830.778 1135.51 848.513C1134.41 864.619 1130.38 880.478 1130.16 896.584C1129.95 912.691 1134.27 930.072 1146.7 940.373C1164.54 955.169 1195.23 952.833 1206.49 973.081C1214.24 987.028 1208.22 1004.34 1209.43 1020.27C1210.91 1039.49 1224.33 1057.26 1242.42 1063.95C1260.51 1070.64 1282.28 1065.86 1295.91 1052.23" fill="#244B52"/>
</g>
<g id="Group_26">
<g id="Group_27">
<path id="Vector_26" d="M1196.79 1429.87C1198.17 1421.9 1201.92 1414.36 1204.75 1406.89C1208.29 1397.51 1211.76 1388.1 1215.23 1378.72L1213.92 1384.03C1215.05 1379.42 1216.43 1374.86 1217.99 1370.4C1217.71 1371 1217.36 1371.57 1217.07 1372.17C1228.75 1334.25 1237.18 1295.28 1255.91 1259.95C1260.9 1250.5 1262.42 1240.55 1261.43 1229.93C1261.39 1230.08 1261.39 1230.18 1261.39 1230.32C1261.39 1229.86 1261.39 1229.37 1261.36 1228.87C1261.32 1228.13 1261.36 1227.42 1261.43 1226.68C1261.57 1225.9 1261.75 1225.12 1261.85 1224.34C1261.92 1224.09 1261.96 1223.81 1261.96 1223.56C1261.96 1223.35 1261.96 1223.17 1261.96 1222.96C1261.99 1222.86 1261.99 1222.71 1261.99 1222.61C1269.43 1189.93 1271.84 1155.99 1267.91 1122.07C1265.18 1101.76 1255.69 1082.78 1253 1062.46C1246.28 997.719 1260.97 930.319 1222.38 870.885C1223.55 868.513 1224.93 865.504 1223.73 863.77C1229.5 866.106 1231.87 872.372 1234.31 877.611C1237.53 884.478 1241.36 891.027 1245.92 897.08C1246.52 898.779 1245.71 901.045 1248.86 901.115C1253.25 901.222 1256.05 890.39 1256.86 886.779C1258.17 881.15 1258.42 875.345 1258.45 869.575C1258.49 865.398 1256.19 857.256 1261.57 856.3C1262.1 855.592 1262.67 854.849 1263.16 854.106C1263.84 868.69 1263.84 883.593 1262.45 898.496C1255.69 952.691 1255.69 1004.2 1270.6 1057.05C1271.94 1062.46 1270.6 1069.26 1270.46 1074.14C1271.91 1070.82 1274.14 1067.84 1276.93 1065.51C1286.1 1043.84 1290.14 1020.06 1297.71 997.436C1308.55 966.285 1323.45 939.169 1338.35 910.708C1342.42 902.567 1341.08 893.08 1340.9 884.053C1341.01 884.407 1341.11 884.726 1341.22 885.044C1342.99 882.85 1344.97 880.796 1347.24 879.133C1351.91 890.354 1349.22 902.567 1345.15 913.399C1333.29 947.665 1312.48 978.072 1309.71 1014.64C1314.03 1008.83 1334.85 999.772 1338.07 998.781C1350.67 994.922 1363.84 992.975 1376.05 987.842C1376.3 989.506 1376.44 993.188 1377.61 993.719C1357.33 1002.85 1332.94 1004.23 1318.03 1024.55C1312.62 1032.69 1309.89 1042.18 1308.55 1051.67C1306.03 1078.18 1305.86 1104.69 1311.31 1131.21C1311.31 1131.35 1311.27 1131.49 1311.27 1131.63C1311.45 1133.76 1311.66 1135.88 1311.91 1138C1311.94 1138.32 1311.94 1138.64 1311.98 1138.92V1138.54C1312.58 1143.7 1313.36 1148.87 1314.28 1154.04C1315.52 1161.08 1315.66 1168.34 1317.29 1175.31C1317.32 1175.53 1317.43 1175.74 1317.5 1175.92C1320.65 1206.82 1321.33 1238.4 1315.31 1268.48C1305.82 1287.46 1292.26 1303.71 1284.16 1324.02C1270.67 1361.83 1277.32 1400.95 1280.05 1438.75C1279.94 1438.82 1279.84 1438.89 1279.77 1438.96C1279.73 1438.96 1279.69 1438.96 1279.66 1438.96C1279.38 1438.96 1279.13 1438.96 1278.85 1438.96C1277.75 1438.96 1276.65 1439.04 1275.55 1439C1275.34 1439 1275.13 1439 1274.95 1438.96C1274.92 1438.96 1274.77 1438.93 1274.67 1438.93C1274.63 1438.93 1274.63 1438.93 1274.63 1438.93C1274.49 1438.89 1274.35 1438.86 1274.17 1438.82C1273.32 1438.58 1272.51 1438.33 1271.62 1438.29C1271.06 1438.26 1270.49 1438.33 1269.96 1438.47C1258.03 1437.87 1247.34 1439.14 1235.37 1437.83C1221.82 1436.49 1209.64 1433.76 1196.33 1433.83C1196.43 1431.67 1196.61 1430.47 1196.79 1429.87ZM1258.14 860.69C1259.13 859.416 1260.15 858.177 1261.14 856.902C1259.98 858 1258.95 859.274 1258.14 860.69Z" fill="url(#paint20_linear_426_686)"/>
</g>
</g>
</g>
</g>
</g>
</g>
<defs>
<linearGradient id="paint0_linear_426_686" x1="458.014" y1="38.3175" x2="1370.13" y2="510.488" gradientUnits="userSpaceOnUse">
<stop offset="0.00537634" stop-color="#82A85D"/>
<stop offset="0.2058" stop-color="#70995B"/>
<stop offset="0.5849" stop-color="#437855"/>
<stop offset="0.9016" stop-color="#0F5D4B"/>
</linearGradient>
<linearGradient id="paint1_linear_426_686" x1="458.272" y1="262.311" x2="1485.11" y2="262.311" gradientUnits="userSpaceOnUse">
<stop offset="0.00537634" stop-color="#4F8A4E"/>
<stop offset="0.1806" stop-color="#477F50"/>
<stop offset="0.5136" stop-color="#346354"/>
<stop offset="0.9664" stop-color="#193C4E"/>
<stop offset="1" stop-color="#18394E"/>
</linearGradient>
<linearGradient id="paint2_linear_426_686" x1="829.522" y1="778.01" x2="1132.69" y2="778.01" gradientUnits="userSpaceOnUse">
<stop stop-color="#762F2F"/>
<stop offset="1" stop-color="#A06440"/>
</linearGradient>
<linearGradient id="paint3_linear_426_686" x1="975.036" y1="636.093" x2="731.72" y2="697.223" gradientUnits="userSpaceOnUse">
<stop offset="0.00537634" stop-color="#82A85D"/>
<stop offset="0.1714" stop-color="#7AA15C"/>
<stop offset="0.3866" stop-color="#67925A"/>
<stop offset="0.6288" stop-color="#477A55"/>
<stop offset="0.889" stop-color="#145E4C"/>
<stop offset="0.9016" stop-color="#0F5D4B"/>
</linearGradient>
<linearGradient id="paint4_linear_426_686" x1="593.314" y1="922.168" x2="935.345" y2="611.084" gradientUnits="userSpaceOnUse">
<stop stop-color="#18394E"/>
<stop offset="0.6176" stop-color="#396A54"/>
<stop offset="1" stop-color="#4F8A4E"/>
</linearGradient>
<linearGradient id="paint5_linear_426_686" x1="744.861" y1="1164.71" x2="875.321" y2="1164.71" gradientUnits="userSpaceOnUse">
<stop stop-color="#762F2F"/>
<stop offset="1" stop-color="#A06440"/>
</linearGradient>
<linearGradient id="paint6_linear_426_686" x1="758.797" y1="100.507" x2="77.0277" y2="476.677" gradientUnits="userSpaceOnUse">
<stop offset="0.00537634" stop-color="#82A85D"/>
<stop offset="0.2058" stop-color="#70995B"/>
<stop offset="0.5849" stop-color="#437855"/>
<stop offset="0.9016" stop-color="#0F5D4B"/>
</linearGradient>
<linearGradient id="paint7_linear_426_686" x1="758.599" y1="262.105" x2="-30.9905" y2="262.105" gradientUnits="userSpaceOnUse">
<stop offset="0.00537634" stop-color="#4F8A4E"/>
<stop offset="0.1806" stop-color="#477F50"/>
<stop offset="0.5136" stop-color="#346354"/>
<stop offset="0.9664" stop-color="#193C4E"/>
<stop offset="1" stop-color="#18394E"/>
</linearGradient>
<linearGradient id="paint8_linear_426_686" x1="473.125" y1="634.15" x2="240.005" y2="634.15" gradientUnits="userSpaceOnUse">
<stop stop-color="#762F2F"/>
<stop offset="1" stop-color="#A06440"/>
</linearGradient>
<linearGradient id="paint9_linear_426_686" x1="-224.308" y1="704.969" x2="389.09" y2="-176.435" gradientUnits="userSpaceOnUse">
<stop stop-color="#18394E"/>
<stop offset="0.6176" stop-color="#396A54"/>
<stop offset="1" stop-color="#4F8A4E"/>
</linearGradient>
<linearGradient id="paint10_linear_426_686" x1="-133.964" y1="1236.82" x2="281.351" y2="766.111" gradientUnits="userSpaceOnUse">
<stop stop-color="#18394E"/>
<stop offset="0.6176" stop-color="#396A54"/>
<stop offset="1" stop-color="#4F8A4E"/>
</linearGradient>
<linearGradient id="paint11_linear_426_686" x1="277.668" y1="1123.78" x2="644.109" y2="708.668" gradientUnits="userSpaceOnUse">
<stop stop-color="#18394E"/>
<stop offset="0.6176" stop-color="#396A54"/>
<stop offset="1" stop-color="#4F8A4E"/>
</linearGradient>
<linearGradient id="paint12_linear_426_686" x1="1216.45" y1="121.959" x2="1907.9" y2="495.78" gradientUnits="userSpaceOnUse">
<stop offset="0.00537634" stop-color="#82A85D"/>
<stop offset="0.2058" stop-color="#70995B"/>
<stop offset="0.5849" stop-color="#437855"/>
<stop offset="0.9016" stop-color="#0F5D4B"/>
</linearGradient>
<linearGradient id="paint13_linear_426_686" x1="1216.65" y1="287.664" x2="2009.99" y2="287.664" gradientUnits="userSpaceOnUse">
<stop offset="0.00537634" stop-color="#4F8A4E"/>
<stop offset="0.1806" stop-color="#477F50"/>
<stop offset="0.5136" stop-color="#346354"/>
<stop offset="0.9664" stop-color="#193C4E"/>
<stop offset="1" stop-color="#18394E"/>
</linearGradient>
<linearGradient id="paint14_linear_426_686" x1="1503.48" y1="669.165" x2="1737.71" y2="669.165" gradientUnits="userSpaceOnUse">
<stop stop-color="#762F2F"/>
<stop offset="1" stop-color="#A06440"/>
</linearGradient>
<linearGradient id="paint15_linear_426_686" x1="1710.79" y1="1183.2" x2="1353.61" y2="778.849" gradientUnits="userSpaceOnUse">
<stop stop-color="#18394E"/>
<stop offset="0.6176" stop-color="#396A54"/>
<stop offset="1" stop-color="#4F8A4E"/>
</linearGradient>
<linearGradient id="paint16_linear_426_686" x1="2164.91" y1="615.602" x2="1581.89" y2="-251.563" gradientUnits="userSpaceOnUse">
<stop stop-color="#18394E"/>
<stop offset="0.6176" stop-color="#396A54"/>
<stop offset="1" stop-color="#4F8A4E"/>
</linearGradient>
<linearGradient id="paint17_linear_426_686" x1="1993.07" y1="1156.82" x2="1642.12" y2="759.152" gradientUnits="userSpaceOnUse">
<stop stop-color="#18394E"/>
<stop offset="0.6176" stop-color="#396A54"/>
<stop offset="1" stop-color="#4F8A4E"/>
</linearGradient>
<linearGradient id="paint18_linear_426_686" x1="1086.08" y1="411.467" x2="1391.67" y2="479.969" gradientUnits="userSpaceOnUse">
<stop offset="0.00537634" stop-color="#82A85D"/>
<stop offset="0.1714" stop-color="#7AA15C"/>
<stop offset="0.3866" stop-color="#67925A"/>
<stop offset="0.6288" stop-color="#477A55"/>
<stop offset="0.889" stop-color="#145E4C"/>
<stop offset="0.9016" stop-color="#0F5D4B"/>
</linearGradient>
<linearGradient id="paint19_linear_426_686" x1="1588.22" y1="809.286" x2="1114.85" y2="396.212" gradientUnits="userSpaceOnUse">
<stop stop-color="#18394E"/>
<stop offset="0.6176" stop-color="#396A54"/>
<stop offset="1" stop-color="#4F8A4E"/>
</linearGradient>
<linearGradient id="paint20_linear_426_686" x1="1377.58" y1="1146.56" x2="1196.31" y2="1146.56" gradientUnits="userSpaceOnUse">
<stop stop-color="#762F2F"/>
<stop offset="1" stop-color="#A06440"/>
</linearGradient>
<clipPath id="clip0_426_686">
<rect width="1920" height="1080" fill="white"/>
</clipPath>
<clipPath id="clip1_426_686">
<rect width="1095" height="1418" fill="white" transform="translate(390 -167)"/>
</clipPath>
<clipPath id="clip2_426_686">
<rect width="475" height="1193" fill="white" transform="translate(592 182)"/>
</clipPath>
<clipPath id="clip3_426_686">
<rect width="842" height="1023" fill="white" transform="matrix(-1 0 0 1 811 -114)"/>
</clipPath>
<clipPath id="clip4_426_686">
<rect width="846" height="1049" fill="white" transform="translate(1164 -98)"/>
</clipPath>
<clipPath id="clip5_426_686">
<rect width="660" height="1659" fill="white" transform="matrix(-1 0 0 1 1632 -51)"/>
</clipPath>
</defs>
</svg>
